<svg id="logo-footer" xmlns="http://www.w3.org/2000/svg" width="174" height="52" viewBox="0 0 174 52">
  <text id="Laugh_Home_2022" data-name="Laugh@Home2022" transform="translate(46)" fill="#f9f9f9" font-size="20" font-family="Calibri"><tspan x="0" y="19">Laugh@Home</tspan><tspan x="0" y="43">2022</tspan></text>
  <g id="MDI_emoticon-cool" data-name="MDI / emoticon-cool" transform="translate(0 1)" style="isolation: isolate">
    <g id="Boundary" fill="none" stroke="#9b6a0b" stroke-width="2" opacity="0">
      <rect width="46" height="46" stroke="none"/>
      <rect x="1" y="1" width="44" height="44" fill="none"/>
    </g>
    <path id="Path_emoticon-cool" data-name="Path / emoticon-cool" d="M4.313,11.9a18.947,18.947,0,0,1,33.291,0l-1.479,1.479H5.792L4.313,11.9m34.466,2.616a19.2,19.2,0,0,1,1.138,6.446A18.958,18.958,0,0,1,2,20.958a19.2,19.2,0,0,1,1.138-6.446l2.654,2.654h1.9c0,2.616,4.019,4.74,6.635,4.74s5.214-2.123,5.214-4.74H22.38c0,2.616,2.6,4.74,5.214,4.74s6.635-2.123,6.635-4.74h1.9l2.654-2.654M28.9,27.442,26.21,24.75c-.853,1.365-2.882,2.332-5.251,2.332s-4.4-.967-5.251-2.332l-2.692,2.692a10.351,10.351,0,0,0,7.944,3.431A10.351,10.351,0,0,0,28.9,27.442Z" transform="translate(1.792 1.792)" fill="none" stroke="#9b6a0b" stroke-width="2"/>
  </g>
</svg>
